<svg width="1288" height="380" viewBox="0 0 1288 380" fill="none" xmlns="http://www.w3.org/2000/svg">
<path d="M1284 333.443C1284 333.443 1082.24 364.439 959.536 333.443C849.606 305.674 801.76 272.935 701.393 220.943C608.162 172.648 563.569 128.503 463.657 95.4434C357.009 60.1547 291.038 54.4434 178.476 54.4434C72.872 54.4434 3.99996 3.94336 3.99996 3.94336" stroke="#3773A9" stroke-width="7" stroke-linecap="round" stroke-linejoin="round"/>
<circle cx="29.0744" cy="29.0744" r="29.0744" transform="matrix(-0.997499 0.070675 0.070675 0.997499 1117.39 316.943)" fill="#3773A9"/>
<circle cx="14.3434" cy="14.3434" r="14.3434" transform="matrix(-0.997499 0.070675 0.070675 0.997499 1103.74 332.679)" fill="white"/>
<circle cx="29.0744" cy="29.0744" r="29.0744" transform="matrix(-0.997499 0.070675 0.070675 0.997499 680.003 164.943)" fill="#3773A9"/>
<circle cx="14.3434" cy="14.3434" r="14.3434" transform="matrix(-0.997499 0.070675 0.070675 0.997499 666.351 180.679)" fill="white"/>
<circle cx="29.0744" cy="29.0744" r="29.0744" transform="matrix(-0.997499 0.070675 0.070675 0.997499 221.391 25.9434)" fill="#3773A9"/>
<circle cx="14.3434" cy="14.3434" r="14.3434" transform="matrix(-0.997499 0.070675 0.070675 0.997499 207.738 41.6787)" fill="white"/>
</svg>
