<svg width="35" height="35" viewBox="0 0 35 35" fill="none" xmlns="http://www.w3.org/2000/svg">
<g id="Group 2">
<circle id="Ellipse 1" cx="17.5" cy="17.5" r="16.25" fill="#D7D9DE" fill-opacity="0.01" stroke="#B6BCC9" stroke-width="2.5"/>
<path id="Arrow 1" d="M18.9268 11.0977C18.9268 10.5454 18.4791 10.0977 17.9268 10.0977C17.3745 10.0977 16.9268 10.5454 16.9268 11.0977L18.9268 11.0977ZM17.2197 24.6096C17.6102 25.0002 18.2434 25.0002 18.6339 24.6096L24.9979 18.2457C25.3884 17.8552 25.3884 17.222 24.9979 16.8315C24.6074 16.4409 23.9742 16.4409 23.5837 16.8315L17.9268 22.4883L12.27 16.8315C11.8795 16.4409 11.2463 16.4409 10.8558 16.8315C10.4652 17.222 10.4652 17.8552 10.8558 18.2457L17.2197 24.6096ZM16.9268 11.0977L16.9268 23.9025L18.9268 23.9025L18.9268 11.0977L16.9268 11.0977Z" fill="#B6BCC9"/>
</g>
</svg>
