<svg width="216" height="57" viewBox="0 0 216 57" fill="none" xmlns="http://www.w3.org/2000/svg">
<path d="M37.3719 9.31721C39.9245 9.31721 41.9938 7.23149 41.9938 4.65861C41.9938 2.08573 39.9245 0 37.3719 0C34.8193 0 32.75 2.08573 32.75 4.65861C32.75 7.23149 34.8193 9.31721 37.3719 9.31721Z" fill="#3773A9"/>
<path d="M19.1732 11.853C21.5695 11.853 23.5121 9.895 23.5121 7.47967C23.5121 5.06433 21.5695 3.10632 19.1732 3.10632C16.7769 3.10632 14.8343 5.06433 14.8343 7.47967C14.8343 9.895 16.7769 11.853 19.1732 11.853Z" fill="#77AC28"/>
<path d="M28.5526 18.3383C30.0979 18.3383 31.3505 17.0757 31.3505 15.5181C31.3505 13.9606 30.0979 12.698 28.5526 12.698C27.0074 12.698 25.7547 13.9606 25.7547 15.5181C25.7547 17.0757 27.0074 18.3383 28.5526 18.3383Z" fill="#77AC28"/>
<path d="M8.67729 34.9916C10.2225 34.9916 11.4752 33.729 11.4752 32.1715C11.4752 30.614 10.2225 29.3513 8.67729 29.3513C7.13204 29.3513 5.87937 30.614 5.87937 32.1715C5.87937 33.729 7.13204 34.9916 8.67729 34.9916Z" fill="#77AC28"/>
<path d="M17.2136 30.4757C19.6099 30.4757 21.5524 28.5177 21.5524 26.1023C21.5524 23.687 19.6099 21.729 17.2136 21.729C14.8173 21.729 12.8747 23.687 12.8747 26.1023C12.8747 28.5177 14.8173 30.4757 17.2136 30.4757Z" fill="#77AC28"/>
<path d="M41.8522 17.213C43.322 17.213 44.5135 16.012 44.5135 14.5305C44.5135 13.0491 43.322 11.8481 41.8522 11.8481C40.3825 11.8481 39.1909 13.0491 39.1909 14.5305C39.1909 16.012 40.3825 17.213 41.8522 17.213Z" fill="#77AC28"/>
<path d="M35.9724 20.5998C36.6672 20.5998 37.2304 20.0321 37.2304 19.3319C37.2304 18.6316 36.6672 18.0639 35.9724 18.0639C35.2777 18.0639 34.7145 18.6316 34.7145 19.3319C34.7145 20.0321 35.2777 20.5998 35.9724 20.5998Z" fill="#77AC28"/>
<path d="M24.3552 23.4248C24.9745 23.4248 25.4765 22.9188 25.4765 22.2946C25.4765 21.6704 24.9745 21.1644 24.3552 21.1644C23.7359 21.1644 23.2339 21.6704 23.2339 22.2946C23.2339 22.9188 23.7359 23.4248 24.3552 23.4248Z" fill="#77AC28"/>
<path d="M14.8343 36.1219C15.4536 36.1219 15.9556 35.6158 15.9556 34.9916C15.9556 34.3674 15.4536 33.8614 14.8343 33.8614C14.215 33.8614 13.713 34.3674 13.713 34.9916C13.713 35.6158 14.215 36.1219 14.8343 36.1219Z" fill="#77AC28"/>
<path d="M49.2592 21.6302C49.3584 21.0141 48.9433 20.4335 48.332 20.3335C47.7207 20.2335 47.1448 20.6519 47.0455 21.268C46.9463 21.8842 47.3614 22.4647 47.9727 22.5648C48.584 22.6648 49.16 22.2464 49.2592 21.6302Z" fill="#77AC28"/>
<path d="M36.114 34.9917C36.7332 34.9917 37.2353 34.4857 37.2353 33.8615C37.2353 33.2373 36.7332 32.7312 36.114 32.7312C35.4947 32.7312 34.9926 33.2373 34.9926 33.8615C34.9926 34.4857 35.4947 34.9917 36.114 34.9917Z" fill="#77AC28"/>
<path d="M39.7512 45.7135C40.3704 45.7135 40.8725 45.2075 40.8725 44.5833C40.8725 43.9591 40.3704 43.4531 39.7512 43.4531C39.1319 43.4531 38.6298 43.9591 38.6298 44.5833C38.6298 45.2075 39.1319 45.7135 39.7512 45.7135Z" fill="#77AC28"/>
<path d="M47.2659 48.813C48.6513 48.6748 49.6633 47.4308 49.5262 46.0344C49.3892 44.6379 48.155 43.6179 46.7695 43.7561C45.3841 43.8942 44.3721 45.1382 44.5092 46.5346C44.6463 47.9311 45.8805 48.9511 47.2659 48.813Z" fill="#77AC28"/>
<path d="M59.3483 48.8189C60.7405 48.8189 61.8691 47.6813 61.8691 46.2781C61.8691 44.8749 60.7405 43.7373 59.3483 43.7373C57.9562 43.7373 56.8276 44.8749 56.8276 46.2781C56.8276 47.6813 57.9562 48.8189 59.3483 48.8189Z" fill="#77AC28"/>
<path d="M56.5504 57C57.1697 57 57.6717 56.494 57.6717 55.8698C57.6717 55.2456 57.1697 54.7396 56.5504 54.7396C55.9311 54.7396 55.4291 55.2456 55.4291 55.8698C55.4291 56.494 55.9311 57 56.5504 57Z" fill="#77AC28"/>
<path d="M53.7467 53.33C54.9825 53.33 55.9844 52.3201 55.9844 51.0744C55.9844 49.8287 54.9825 48.8189 53.7467 48.8189C52.5108 48.8189 51.5089 49.8287 51.5089 51.0744C51.5089 52.3201 52.5108 53.33 53.7467 53.33Z" fill="#77AC28"/>
<path d="M42.6906 28.2201C44.1604 28.2201 45.3519 27.0191 45.3519 25.5377C45.3519 24.0562 44.1604 22.8552 42.6906 22.8552C41.2208 22.8552 40.0293 24.0562 40.0293 25.5377C40.0293 27.0191 41.2208 28.2201 42.6906 28.2201Z" fill="#77AC28"/>
<path d="M56.687 27.3702C59.0833 27.3702 61.0259 25.4122 61.0259 22.9969C61.0259 20.5816 59.0833 18.6235 56.687 18.6235C54.2907 18.6235 52.3481 20.5816 52.3481 22.9969C52.3481 25.4122 54.2907 27.3702 56.687 27.3702Z" fill="#77AC28"/>
<path d="M63.6872 34.426C65.3106 34.426 66.6267 33.0996 66.6267 31.4633C66.6267 29.827 65.3106 28.5005 63.6872 28.5005C62.0638 28.5005 60.7478 29.827 60.7478 31.4633C60.7478 33.0996 62.0638 34.426 63.6872 34.426Z" fill="#77AC28"/>
<path d="M67.6065 25.395C68.9205 25.395 69.9857 24.3213 69.9857 22.9969C69.9857 21.6724 68.9205 20.5987 67.6065 20.5987C66.2924 20.5987 65.2272 21.6724 65.2272 22.9969C65.2272 24.3213 66.2924 25.395 67.6065 25.395Z" fill="#77AC28"/>
<path d="M56.687 11.8531C59.2396 11.8531 61.3089 9.76734 61.3089 7.19446C61.3089 4.62159 59.2396 2.53585 56.687 2.53585C54.1344 2.53585 52.0651 4.62159 52.0651 7.19446C52.0651 9.76734 54.1344 11.8531 56.687 11.8531Z" fill="#3773A9"/>
<path d="M31.493 31.3207C33.8893 31.3207 35.8319 29.3627 35.8319 26.9473C35.8319 24.532 33.8893 22.574 31.493 22.574C29.0967 22.574 27.1541 24.532 27.1541 26.9473C27.1541 29.3627 29.0967 31.3207 31.493 31.3207Z" fill="#3773A9"/>
<path d="M8.67541 23.1497C8.75527 20.7357 6.87852 18.7135 4.48355 18.633C2.08858 18.5525 0.0823252 20.4441 0.00245745 22.8581C-0.0774103 25.2721 1.79936 27.2943 4.19433 27.3748C6.58929 27.4553 8.59554 25.5636 8.67541 23.1497Z" fill="#3773A9"/>
<path d="M27.0126 6.49207C28.3267 6.49207 29.3919 5.41838 29.3919 4.09391C29.3919 2.76944 28.3267 1.69575 27.0126 1.69575C25.6986 1.69575 24.6334 2.76944 24.6334 4.09391C24.6334 5.41838 25.6986 6.49207 27.0126 6.49207Z" fill="#3773A9"/>
<path d="M8.39425 15.8034C9.9395 15.8034 11.1922 14.5408 11.1922 12.9833C11.1922 11.4257 9.9395 10.1631 8.39425 10.1631C6.849 10.1631 5.59633 11.4257 5.59633 12.9833C5.59633 14.5408 6.849 15.8034 8.39425 15.8034Z" fill="#3773A9"/>
<path d="M47.0294 2.82602C47.6487 2.82602 48.1508 2.32 48.1508 1.69579C48.1508 1.07159 47.6487 0.565569 47.0294 0.565569C46.4102 0.565569 45.9081 1.07159 45.9081 1.69579C45.9081 2.32 46.4102 2.82602 47.0294 2.82602Z" fill="#3773A9"/>
<path d="M56.5504 32.4508C57.1697 32.4508 57.6717 31.9448 57.6717 31.3206C57.6717 30.6964 57.1697 30.1904 56.5504 30.1904C55.9311 30.1904 55.4291 30.6964 55.4291 31.3206C55.4291 31.9448 55.9311 32.4508 56.5504 32.4508Z" fill="#3773A9"/>
<path d="M47.0294 31.8862C47.6487 31.8862 48.1508 31.3802 48.1508 30.756C48.1508 30.1318 47.6487 29.6258 47.0294 29.6258C46.4102 29.6258 45.9081 30.1318 45.9081 30.756C45.9081 31.3802 46.4102 31.8862 47.0294 31.8862Z" fill="#3773A9"/>
<path d="M51.2317 15.523C51.851 15.523 52.353 15.017 52.353 14.3928C52.353 13.7686 51.851 13.2626 51.2317 13.2626C50.6124 13.2626 50.1104 13.7686 50.1104 14.3928C50.1104 15.017 50.6124 15.523 51.2317 15.523Z" fill="#3773A9"/>
<path d="M16.2337 18.6235C16.853 18.6235 17.3551 18.1175 17.3551 17.4933C17.3551 16.8691 16.853 16.3631 16.2337 16.3631C15.6144 16.3631 15.1124 16.8691 15.1124 17.4933C15.1124 18.1175 15.6144 18.6235 16.2337 18.6235Z" fill="#3773A9"/>
<path d="M53.1913 47.4084C53.8106 47.4084 54.3126 46.9024 54.3126 46.2782C54.3126 45.654 53.8106 45.148 53.1913 45.148C52.572 45.148 52.07 45.654 52.07 46.2782C52.07 46.9024 52.572 47.4084 53.1913 47.4084Z" fill="#3773A9"/>
<path d="M24.2137 40.9173C26.61 40.9173 28.5526 38.9592 28.5526 36.5439C28.5526 34.1286 26.61 32.1706 24.2137 32.1706C21.8174 32.1706 19.8748 34.1286 19.8748 36.5439C19.8748 38.9592 21.8174 40.9173 24.2137 40.9173Z" fill="#3773A9"/>
<path d="M53.611 43.7383C56.0073 43.7383 57.9499 41.7803 57.9499 39.3649C57.9499 36.9496 56.0073 34.9916 53.611 34.9916C51.2147 34.9916 49.2721 36.9496 49.2721 39.3649C49.2721 41.7803 51.2147 43.7383 53.611 43.7383Z" fill="#3773A9"/>
<path d="M65.0867 17.213C66.5565 17.213 67.748 16.012 67.748 14.5305C67.748 13.0491 66.5565 11.8481 65.0867 11.8481C63.6169 11.8481 62.4254 13.0491 62.4254 14.5305C62.4254 16.012 63.6169 17.213 65.0867 17.213Z" fill="#3773A9"/>
<path d="M64.2474 41.4779C65.5614 41.4779 66.6266 40.4042 66.6266 39.0798C66.6266 37.7553 65.5614 36.6816 64.2474 36.6816C62.9334 36.6816 61.8681 37.7553 61.8681 39.0798C61.8681 40.4042 62.9334 41.4779 64.2474 41.4779Z" fill="#3773A9"/>
<path d="M42.5491 41.4769C44.0943 41.4769 45.347 40.2143 45.347 38.6567C45.347 37.0992 44.0943 35.8366 42.5491 35.8366C41.0038 35.8366 39.7512 37.0992 39.7512 38.6567C39.7512 40.2143 41.0038 41.4769 42.5491 41.4769Z" fill="#3773A9"/>
<path d="M33.033 44.3029C34.5783 44.3029 35.8309 43.0403 35.8309 41.4828C35.8309 39.9252 34.5783 38.6626 33.033 38.6626C31.4877 38.6626 30.2351 39.9252 30.2351 41.4828C30.2351 43.0403 31.4877 44.3029 33.033 44.3029Z" fill="#3773A9"/>
<path d="M10.9563 14.1537L10.6801 14.6449L15.1244 17.1845L15.4007 16.6933L10.9563 14.1537Z" fill="#3773A9"/>
<path d="M15.1397 17.5812L8.21796 21.0657L8.46826 21.5708L15.3899 18.0863L15.1397 17.5812Z" fill="#3773A9"/>
<path d="M29.4192 3.67453L29.3608 4.23607L32.7355 4.59298L32.7939 4.03144L29.4192 3.67453Z" fill="#3773A9"/>
<path d="M45.8466 1.61454L41.7044 3.01232L41.8822 3.54773L46.0244 2.14996L45.8466 1.61454Z" fill="#3773A9"/>
<path d="M53.6912 10.7245L51.6259 13.2561L52.0586 13.6147L54.1239 11.0831L53.6912 10.7245Z" fill="#3773A9"/>
<path d="M60.2704 10.1321L59.914 10.5677L63.0883 13.2062L63.4447 12.7705L60.2704 10.1321Z" fill="#3773A9"/>
<path d="M55.4096 31.601L47.8483 31.0413L47.8922 30.4757L55.4486 31.0413L55.4096 31.601Z" fill="#3773A9"/>
<path d="M57.3059 31.6897L56.9095 32.0887L62.3628 37.593L62.7592 37.194L57.3059 31.6897Z" fill="#3773A9"/>
<path d="M45.2533 40.3418L44.9228 40.7992L52.3265 46.2348L52.657 45.7775L45.2533 40.3418Z" fill="#3773A9"/>
<path d="M53.4685 43.7384H52.9083V45.4332H53.4685V43.7384Z" fill="#3773A9"/>
<path d="M28.4624 31.075L26.4763 33.7442L26.9244 34.083L28.9106 31.4137L28.4624 31.075Z" fill="#3773A9"/>
<path d="M28.0717 38.5252L27.8184 39.0288L30.4533 40.375L30.7066 39.8714L28.0717 38.5252Z" fill="#3773A9"/>
<path d="M11.3514 33.0677L11.1091 33.5768L13.6757 34.8179L13.9181 34.3089L11.3514 33.0677Z" fill="#77AC28"/>
<path d="M15.6283 29.5461L14.5278 33.49L15.0661 33.6426L16.1666 29.6987L15.6283 29.5461Z" fill="#77AC28"/>
<path d="M20.7024 10.9095L20.1731 11.0943L23.7179 21.4066L24.2472 21.2217L20.7024 10.9095Z" fill="#77AC28"/>
<path d="M22.5758 9.66859L22.2069 10.0935L26.686 14.0444L27.0549 13.6195L22.5758 9.66859Z" fill="#77AC28"/>
<path d="M39.2988 15.5637L36.2361 18.0896L36.5896 18.525L39.6523 15.9992L39.2988 15.5637Z" fill="#77AC28"/>
<path d="M42.277 17.1946L41.7174 17.2215L41.9977 23.1452L42.5572 23.1183L42.277 17.1946Z" fill="#77AC28"/>
<path d="M47.4599 21.5726L44.7127 23.441L45.0265 23.9099L47.7738 22.0414L47.4599 21.5726Z" fill="#77AC28"/>
<path d="M65.5053 22.575H60.7478V23.1396H65.5053V22.575Z" fill="#77AC28"/>
<path d="M66.66 24.9752L64.7008 28.6443L65.1941 28.9119L67.1533 25.2428L66.66 24.9752Z" fill="#77AC28"/>
<path d="M36.8234 34.8117L36.291 34.9873L39.0927 43.6172L39.6251 43.4416L36.8234 34.8117Z" fill="#77AC28"/>
<path d="M40.9038 44.5495L40.7761 45.0992L44.5066 45.9798L44.6343 45.43L40.9038 44.5495Z" fill="#77AC28"/>
<path d="M57.1652 47.6163L55.2393 49.4532L55.6244 49.8633L57.5503 48.0264L57.1652 47.6163Z" fill="#77AC28"/>
<path d="M55.1276 52.8761L54.6399 53.1539L55.7456 55.1261L56.2333 54.8484L55.1276 52.8761Z" fill="#77AC28"/>
<path d="M82.1631 53.7716C81.7952 53.7749 81.4304 53.7047 81.0896 53.5651C80.7618 53.4344 80.4632 53.2391 80.2113 52.9906C79.9652 52.7395 79.77 52.4424 79.6365 52.1161C79.3632 51.4166 79.3632 50.6388 79.6365 49.9393C79.77 49.613 79.9652 49.316 80.2113 49.0648C80.4634 48.8163 80.7619 48.6207 81.0896 48.4894C81.4305 48.3502 81.7953 48.28 82.1631 48.2828C82.5091 48.2809 82.8528 48.3409 83.178 48.4599C83.4917 48.5733 83.7741 48.7604 84.0017 49.0058L83.8456 49.173C83.6238 48.9568 83.36 48.7893 83.0707 48.6812C82.7817 48.5817 82.4782 48.5318 82.1729 48.5336C81.8387 48.5328 81.5075 48.5962 81.1969 48.7205C80.9016 48.8422 80.6334 49.0223 80.4083 49.2502C80.1832 49.4781 80.0057 49.7492 79.8863 50.0475C79.6418 50.6801 79.6418 51.3822 79.8863 52.0148C80.0062 52.3095 80.1834 52.5771 80.4074 52.8017C80.6312 53.032 80.9001 53.2129 81.1969 53.3329C81.5066 53.4608 81.8382 53.5256 82.1729 53.5237C82.4786 53.5268 82.7826 53.4755 83.0707 53.3723C83.3615 53.2673 83.626 53.0994 83.8456 52.8804L84.0017 53.0526C83.7712 53.2943 83.4897 53.4805 83.178 53.5975C82.8534 53.7185 82.5092 53.7776 82.1631 53.7716Z" fill="black"/>
<path d="M86.3077 53.7618C86.0473 53.77 85.788 53.723 85.5465 53.6241C85.3532 53.5449 85.1883 53.4085 85.0734 53.2329C84.9586 53.0573 84.8993 52.8507 84.9034 52.6404C84.9008 52.4498 84.9479 52.2619 85.04 52.0955C85.1408 51.9146 85.2984 51.7727 85.488 51.6922C85.7547 51.5789 86.043 51.5268 86.3321 51.5397H87.8526V51.7512H86.3361C86.0124 51.7187 85.688 51.8061 85.4236 51.9971C85.3362 52.0758 85.2669 52.1729 85.2207 52.2815C85.1745 52.3901 85.1525 52.5076 85.1562 52.6257C85.151 52.7551 85.176 52.8839 85.2292 53.0018C85.2824 53.1197 85.3624 53.2233 85.4626 53.3044C85.714 53.4842 86.0186 53.5723 86.3263 53.5542C86.6453 53.567 86.9603 53.4797 87.228 53.3044C87.4739 53.1245 87.6605 52.8743 87.7638 52.5863L87.8468 52.7585C87.7512 53.0583 87.5593 53.3176 87.3012 53.4952C87.0055 53.6858 86.6583 53.779 86.3077 53.7618ZM87.7716 53.7618V51.1531C87.7839 50.9889 87.7626 50.8239 87.7088 50.6684C87.6551 50.5128 87.5702 50.3701 87.4593 50.2491C87.3382 50.1393 87.1964 50.0552 87.0423 50.002C86.8881 49.9488 86.7249 49.9274 86.5625 49.9393C86.2951 49.936 86.0297 49.9861 85.7817 50.0868C85.5566 50.1823 85.3491 50.3153 85.1679 50.4803L85.0313 50.2934C85.2286 50.1067 85.4608 49.9616 85.7144 49.8665C85.9859 49.7583 86.2754 49.7032 86.5673 49.7042C86.7629 49.691 86.9592 49.7168 87.1449 49.7801C87.3306 49.8434 87.5021 49.9429 87.6496 50.0731C87.7798 50.2194 87.8797 50.3905 87.9434 50.5763C88.0071 50.7622 88.0333 50.9589 88.0205 51.1551V53.7638L87.7716 53.7618Z" fill="black"/>
<path d="M89.7732 53.7421V49.718H90.0172V50.8236L89.9928 50.7548C90.0853 50.437 90.2813 50.1598 90.5491 49.9679C90.8376 49.774 91.1783 49.6743 91.525 49.6826V49.9383H91.4566C91.2574 49.9277 91.0582 49.9618 90.8736 50.0382C90.6889 50.1145 90.5234 50.2313 90.389 50.38C90.1131 50.7232 89.9739 51.1577 89.9987 51.5988V53.7412L89.7732 53.7421Z" fill="black"/>
<path d="M92.8883 48.6468C92.8553 48.6462 92.8227 48.6389 92.7926 48.6254C92.7624 48.6119 92.7352 48.5924 92.7126 48.5681C92.6902 48.5465 92.6723 48.5205 92.6599 48.4918C92.6475 48.4631 92.6409 48.4322 92.6404 48.4009C92.6396 48.3672 92.6455 48.3337 92.6579 48.3024C92.6704 48.2711 92.689 48.2427 92.7126 48.2189C92.7614 48.1766 92.824 48.1541 92.8883 48.1559C92.921 48.1549 92.9536 48.1609 92.9839 48.1734C93.0141 48.186 93.0414 48.2048 93.064 48.2288C93.0874 48.2507 93.106 48.2774 93.1186 48.307C93.1312 48.3367 93.1376 48.3686 93.1372 48.4009C93.1377 48.4339 93.1315 48.4666 93.1189 48.4971C93.1063 48.5276 93.0876 48.5551 93.064 48.5779C93.0416 48.6019 93.0143 48.6205 92.9839 48.6324C92.9535 48.6443 92.9208 48.6493 92.8883 48.6468ZM92.7663 53.7274V49.7033H93.0152V53.7274H92.7663Z" fill="black"/>
<path d="M96.6807 49.6836C96.972 49.6778 97.2601 49.7454 97.519 49.8803C97.754 50.0099 97.9443 50.2086 98.0645 50.4498C98.203 50.7372 98.27 51.0542 98.2597 51.3735V53.7421H98.0108V51.3932C98.0399 50.995 97.9123 50.6014 97.6556 50.2974C97.5263 50.172 97.3732 50.0744 97.2055 50.0103C97.0378 49.9462 96.8589 49.9171 96.6797 49.9246C96.38 49.9123 96.0823 49.9802 95.817 50.1213C95.5827 50.2544 95.3926 50.4542 95.2705 50.6957C95.1379 50.9659 95.0711 51.2639 95.0753 51.5653V53.7372H94.8362V49.7131H95.0802V50.8433L95.0509 50.7744C95.1598 50.4491 95.3704 50.1682 95.6511 49.9737C95.9562 49.7719 96.316 49.6705 96.6807 49.6836Z" fill="black"/>
<path d="M101.517 53.5996C101.176 53.6024 100.84 53.5163 100.541 53.3497C100.252 53.187 100.012 52.9493 99.8446 52.6612C99.6751 52.3494 99.5862 51.9996 99.5862 51.6441C99.5862 51.2885 99.6751 50.9387 99.8446 50.627C100.011 50.338 100.251 50.1 100.541 49.9384C100.841 49.7741 101.176 49.6876 101.517 49.6867C101.857 49.6858 102.193 49.7707 102.493 49.9335C102.775 50.0956 103.007 50.3315 103.167 50.6161C103.329 50.9344 103.414 51.2874 103.414 51.6455C103.414 52.0037 103.329 52.3566 103.167 52.6749C103.008 52.9613 102.775 53.1992 102.493 53.3635C102.194 53.528 101.858 53.6095 101.517 53.5996ZM101.517 53.3694C101.824 53.3745 102.126 53.3 102.396 53.153C102.651 53.0097 102.861 52.7966 103.001 52.5382C103.149 52.2625 103.225 51.9529 103.22 51.6391C103.226 51.3268 103.151 51.0184 103.001 50.745C102.857 50.4918 102.648 50.283 102.396 50.141C102.126 49.9986 101.825 49.9242 101.521 49.9242C101.216 49.9242 100.916 49.9986 100.646 50.141C100.394 50.2856 100.184 50.4938 100.037 50.745C99.886 51.018 99.8102 51.3267 99.8172 51.6391C99.8121 51.9529 99.8877 52.2627 100.037 52.5382C100.181 52.7949 100.391 53.0074 100.646 53.153C100.915 53.3 101.218 53.3745 101.524 53.3694H101.517ZM101.615 55.2659C101.273 55.2695 100.932 55.2112 100.611 55.0938C100.324 54.9894 100.064 54.8213 99.8504 54.6019L99.9968 54.4052C100.202 54.6051 100.446 54.7604 100.713 54.8616C100.999 54.9672 101.301 55.0205 101.605 55.019C101.824 55.038 102.044 55.013 102.254 54.9455C102.463 54.878 102.657 54.7692 102.824 54.6255C102.968 54.453 103.076 54.2536 103.143 54.0387C103.21 53.8238 103.234 53.5977 103.214 53.3733V52.1546L103.287 51.6283L103.219 51.1031V49.7072H103.462V53.3468C103.485 53.6072 103.456 53.8695 103.376 54.1184C103.297 54.3672 103.169 54.5975 103 54.7957C102.813 54.9635 102.594 55.0921 102.357 55.1741C102.12 55.256 101.87 55.2895 101.62 55.2728L101.615 55.2659Z" fill="black"/>
<path d="M107.713 53.7421H107.456V48.3123H110.929V48.5533H107.716L107.713 53.7421ZM107.665 51.0351H110.592V51.2662H107.665V51.0351Z" fill="black"/>
<path d="M113.564 53.7618C113.221 53.7731 112.882 53.6869 112.585 53.5129C112.288 53.339 112.046 53.0843 111.886 52.7781C111.715 52.4529 111.629 52.0896 111.634 51.7217C111.627 51.3551 111.714 50.9931 111.886 50.6702C112.049 50.3743 112.284 50.1257 112.569 49.9482C112.784 49.817 113.022 49.7297 113.27 49.6914C113.518 49.653 113.771 49.6643 114.015 49.7246C114.259 49.7849 114.488 49.893 114.69 50.0428C114.893 50.1925 115.064 50.381 115.194 50.5974C115.208 50.621 115.222 50.6456 115.236 50.6702C115.406 50.9935 115.492 51.3555 115.484 51.7217C115.491 52.0893 115.405 52.4526 115.236 52.7781C115.078 53.0786 114.842 53.3299 114.552 53.5051C114.252 53.6779 113.91 53.7666 113.564 53.7618ZM113.564 53.5306C113.869 53.537 114.169 53.4572 114.431 53.3005C114.686 53.1488 114.892 52.927 115.026 52.6611C115.167 52.3687 115.24 52.0478 115.24 51.7227C115.24 51.3975 115.167 51.0767 115.026 50.7843C114.892 50.5201 114.686 50.3002 114.431 50.1508C114.167 49.9995 113.868 49.9215 113.564 49.9246C113.265 49.921 112.97 49.9992 112.711 50.1508C112.456 50.3022 112.246 50.5213 112.106 50.7843C111.959 51.0749 111.882 51.3965 111.882 51.7227C111.882 52.0489 111.959 52.3705 112.106 52.6611C112.246 52.9255 112.456 53.1465 112.711 53.3005C112.968 53.4578 113.264 53.5377 113.564 53.5306Z" fill="black"/>
<path d="M116.85 53.7421V49.718H117.088V50.7548C117.178 50.4359 117.375 50.1581 117.644 49.9679C117.933 49.774 118.273 49.6743 118.62 49.6826V49.9383H118.552C118.352 49.9277 118.153 49.9618 117.969 50.0382C117.784 50.1145 117.618 50.2313 117.484 50.38C117.209 50.7234 117.069 51.1578 117.094 51.5988V53.7412L116.85 53.7421Z" fill="black"/>
<path d="M124.274 53.7717C123.904 53.7754 123.536 53.7052 123.192 53.5652C122.863 53.4367 122.564 53.242 122.312 52.9928C122.06 52.7437 121.862 52.4454 121.728 52.1162C121.455 51.4167 121.455 50.6389 121.728 49.9394C121.862 49.6101 122.06 49.3118 122.312 49.0625C122.564 48.8132 122.863 48.6182 123.192 48.4895C123.89 48.2141 124.664 48.2141 125.362 48.4895C125.686 48.6205 125.981 48.8163 126.229 49.0649C126.475 49.3161 126.671 49.6131 126.804 49.9394C127.084 50.6375 127.084 51.4181 126.804 52.1162C126.671 52.4425 126.475 52.7396 126.229 52.9907C125.982 53.2394 125.686 53.4348 125.362 53.5652C125.016 53.7056 124.647 53.7758 124.274 53.7717ZM124.274 53.5307C124.609 53.5319 124.94 53.4688 125.25 53.3448C125.546 53.2247 125.814 53.0457 126.04 52.8186C126.265 52.5914 126.442 52.3207 126.561 52.0228C126.808 51.3828 126.808 50.6728 126.561 50.0328C126.442 49.7348 126.265 49.4641 126.04 49.2369C125.814 49.0097 125.546 48.8307 125.25 48.7108C124.941 48.5841 124.609 48.5206 124.274 48.5239C123.94 48.5196 123.608 48.5832 123.299 48.7108C123.003 48.8307 122.734 49.0097 122.509 49.2369C122.284 49.4641 122.107 49.7348 121.988 50.0328C121.741 50.6728 121.741 51.3828 121.988 52.0228C122.107 52.3207 122.284 52.5914 122.509 52.8186C122.735 53.0457 123.003 53.2247 123.299 53.3448C123.609 53.4697 123.94 53.5328 124.274 53.5307Z" fill="black"/>
<path d="M129.992 53.7619C129.691 53.7718 129.391 53.7076 129.12 53.575C128.881 53.4485 128.687 53.2515 128.564 53.0103C128.424 52.7215 128.357 52.4027 128.368 52.0817V49.721H128.621V52.0896C128.606 52.2866 128.63 52.4846 128.692 52.672C128.754 52.8594 128.853 53.0323 128.982 53.1805C129.118 53.3094 129.278 53.409 129.453 53.4731C129.629 53.5372 129.815 53.5645 130.001 53.5533C130.286 53.5614 130.568 53.4903 130.815 53.3477C131.042 53.2117 131.226 53.0117 131.342 52.7723C131.468 52.502 131.529 52.206 131.523 51.9076V49.7436H131.77V53.7677H131.532V52.6424L131.562 52.7113C131.46 53.0297 131.257 53.306 130.986 53.4982C130.691 53.6912 130.343 53.7837 129.992 53.7619Z" fill="black"/>
<path d="M133.576 53.7421V49.718H133.82V50.7548C133.912 50.4369 134.107 50.1596 134.375 49.9678C134.664 49.7749 135.004 49.6754 135.351 49.6826V49.9383H135.302C135.104 49.9277 134.905 49.9618 134.721 50.0382C134.537 50.1146 134.373 50.2314 134.239 50.38C133.962 50.7207 133.819 51.1532 133.839 51.5938V53.7362L133.576 53.7421Z" fill="black"/>
<path d="M139.07 53.7421H138.812V48.3123H142.282V48.5533H139.07V53.7421ZM139.021 51.0351H141.949V51.2662H139.021V51.0351Z" fill="black"/>
<path d="M145.012 53.7619C144.711 53.7718 144.411 53.7076 144.14 53.575C143.901 53.4488 143.707 53.2517 143.584 53.0103C143.444 52.7215 143.377 52.4027 143.389 52.0817V49.721H143.642V52.0896C143.627 52.2866 143.651 52.4846 143.713 52.672C143.775 52.8594 143.874 53.0323 144.003 53.1805C144.139 53.3094 144.299 53.409 144.475 53.4731C144.65 53.5372 144.836 53.5645 145.022 53.5533C145.307 53.5614 145.589 53.4903 145.836 53.3477C146.064 53.2117 146.247 53.0117 146.363 52.7723C146.488 52.5019 146.55 52.206 146.543 51.9076V49.7436H146.796V53.7677H146.55V52.6424L146.579 52.7113C146.478 53.0298 146.276 53.3062 146.004 53.4982C145.71 53.6908 145.362 53.7832 145.012 53.7619Z" fill="black"/>
<path d="M147.923 49.9442V49.7229H150.209V49.9442H147.923ZM149.664 53.7667C149.528 53.7755 149.392 53.7555 149.264 53.7081C149.136 53.6607 149.02 53.5868 148.922 53.4913C148.743 53.2836 148.651 53.0145 148.663 52.7398V48.8386H148.912V52.6985C148.896 52.9242 148.965 53.1477 149.107 53.3231C149.181 53.3999 149.271 53.4594 149.371 53.4975C149.47 53.5355 149.576 53.5512 149.682 53.5434C149.917 53.5503 150.144 53.4641 150.317 53.3034L150.443 53.4893C150.342 53.5848 150.22 53.6554 150.087 53.6959C149.949 53.7438 149.804 53.7671 149.658 53.7648L149.664 53.7667Z" fill="black"/>
<path d="M153.271 53.7619C152.971 53.7723 152.673 53.7081 152.403 53.575C152.162 53.4507 151.966 53.2532 151.842 53.0103C151.703 52.7215 151.636 52.4027 151.647 52.0817V49.721H151.88V52.0896C151.865 52.2866 151.889 52.4846 151.951 52.672C152.013 52.8594 152.111 53.0323 152.241 53.1805C152.377 53.3094 152.537 53.409 152.712 53.4731C152.887 53.5372 153.074 53.5645 153.26 53.5533C153.545 53.5614 153.826 53.4903 154.074 53.3477C154.301 53.2117 154.484 53.0117 154.601 52.7723C154.726 52.502 154.788 52.206 154.781 51.9076V49.7436H155.034V53.7677H154.806V52.6424L154.835 52.7113C154.733 53.0297 154.531 53.306 154.259 53.4982C153.966 53.6901 153.62 53.7825 153.271 53.7619Z" fill="black"/>
<path d="M156.854 53.7421V49.718H157.097V50.7548C157.19 50.437 157.386 50.1598 157.653 49.9678C157.942 49.7749 158.283 49.6754 158.629 49.6826V49.9383H158.561C158.362 49.9277 158.164 49.9618 157.98 50.0382C157.796 50.1146 157.632 50.2314 157.498 50.38C157.223 50.7234 157.084 51.1578 157.108 51.5988V53.7412L156.854 53.7421Z" fill="black"/>
<path d="M161.358 53.7618C160.997 53.7693 160.641 53.6811 160.324 53.506C160.029 53.3325 159.787 53.0812 159.623 52.7791C159.448 52.4551 159.359 52.0913 159.364 51.7227C159.358 51.3578 159.44 50.997 159.603 50.6711C159.756 50.3763 159.983 50.1272 160.261 49.9491C160.547 49.7714 160.877 49.6793 161.213 49.6835C161.543 49.6807 161.869 49.7691 162.153 49.9393C162.435 50.1096 162.663 50.3564 162.811 50.6514C162.976 50.9731 163.058 51.3312 163.05 51.6932V51.762H159.537V51.5554H162.915L162.818 51.6784C162.824 51.3642 162.752 51.0535 162.608 50.7744C162.479 50.5161 162.282 50.2986 162.038 50.1459C161.788 49.9976 161.504 49.9194 161.214 49.9194C160.924 49.9194 160.64 49.9976 160.39 50.1459C160.146 50.2988 159.949 50.5163 159.82 50.7744C159.675 51.0566 159.603 51.3708 159.61 51.6882V51.7325C159.604 52.0585 159.684 52.3803 159.839 52.666C159.984 52.9305 160.198 53.15 160.458 53.3004C160.732 53.4587 161.044 53.5383 161.36 53.5306C161.61 53.5314 161.857 53.4816 162.087 53.3841C162.313 53.2887 162.51 53.1342 162.657 52.9365L162.818 53.1037C162.646 53.3196 162.423 53.4887 162.17 53.5955C161.914 53.7077 161.637 53.7643 161.358 53.7618Z" fill="black"/>
<path d="M164.289 53.7618C164.257 53.7618 164.225 53.7552 164.196 53.7426C164.166 53.7299 164.14 53.7113 164.118 53.688C164.092 53.6656 164.072 53.6376 164.058 53.606C164.045 53.5745 164.038 53.5404 164.04 53.5061C164.041 53.4395 164.067 53.376 164.114 53.3286C164.16 53.2812 164.223 53.2536 164.289 53.2513C164.322 53.2509 164.355 53.2572 164.386 53.2699C164.417 53.2825 164.445 53.3013 164.468 53.325C164.492 53.3488 164.51 53.377 164.523 53.4081C164.535 53.4392 164.542 53.4725 164.541 53.5061C164.543 53.5724 164.518 53.6366 164.472 53.6845C164.427 53.7325 164.364 53.7603 164.298 53.7618H164.289Z" fill="black"/>
<path d="M170.338 53.7717C169.97 53.7748 169.606 53.7046 169.265 53.5651C168.939 53.4341 168.642 53.2388 168.392 52.9907C168.146 52.7398 167.95 52.4428 167.817 52.1162C167.544 51.4165 167.544 50.639 167.817 49.9394C167.95 49.6128 168.146 49.3157 168.392 49.0649C168.642 48.8168 168.939 48.6212 169.265 48.4895C169.606 48.3505 169.97 48.2803 170.338 48.2829C170.712 48.2788 171.083 48.349 171.43 48.4895C171.754 48.6214 172.049 48.8178 172.296 49.0669C172.542 49.316 172.737 49.6128 172.868 49.9394C173.148 50.6375 173.148 51.418 172.868 52.1162C172.737 52.4426 172.542 52.7391 172.295 52.9881C172.048 53.237 171.754 53.4333 171.43 53.5651C171.083 53.7056 170.712 53.7758 170.338 53.7717ZM170.338 53.5307C170.672 53.5324 171.004 53.4693 171.314 53.3448C171.61 53.2246 171.878 53.0456 172.104 52.8184C172.329 52.5913 172.507 52.3207 172.626 52.0228C172.873 51.3828 172.873 50.6728 172.626 50.0328C172.507 49.7348 172.329 49.4642 172.104 49.237C171.878 49.0098 171.61 48.8309 171.314 48.7108C170.687 48.4643 169.99 48.4643 169.362 48.7108C169.067 48.8307 168.798 49.0096 168.573 49.2368C168.347 49.464 168.17 49.7348 168.051 50.0328C167.804 50.6728 167.804 51.3828 168.051 52.0228C168.17 52.3207 168.347 52.5914 168.573 52.8186C168.798 53.0458 169.067 53.2247 169.362 53.3448C169.673 53.4698 170.004 53.5329 170.338 53.5307Z" fill="black"/>
<path d="M176.056 53.7619C175.756 53.7717 175.458 53.7075 175.189 53.575C174.948 53.4504 174.752 53.2529 174.628 53.0103C174.489 52.7216 174.422 52.4027 174.433 52.0817V49.721H174.682V52.0896C174.668 52.2864 174.693 52.484 174.754 52.6712C174.816 52.8583 174.914 53.0314 175.042 53.1805C175.178 53.31 175.339 53.41 175.516 53.4741C175.692 53.5382 175.879 53.5652 176.066 53.5533C176.351 53.5608 176.633 53.4897 176.881 53.3477C177.108 53.2131 177.29 53.0125 177.402 52.7723C177.53 52.5026 177.593 52.2065 177.587 51.9076V49.7436H177.836V53.7677H177.592V52.6424L177.621 52.7113C177.521 53.0305 177.319 53.3072 177.047 53.4982C176.753 53.6908 176.406 53.7832 176.056 53.7619Z" fill="black"/>
<path d="M179.664 53.7421V49.718H179.903V50.7548C179.993 50.4358 180.189 50.1578 180.458 49.9678C180.747 49.7741 181.088 49.6745 181.434 49.6826V49.9383H181.366C181.167 49.9277 180.968 49.9619 180.783 50.0382C180.598 50.1146 180.433 50.2313 180.298 50.38C180.025 50.7242 179.888 51.1585 179.914 51.5987V53.7412L179.664 53.7421Z" fill="black"/>
<path d="M187.069 53.7717C186.703 53.7722 186.34 53.7003 186.002 53.5602C185.673 53.4317 185.373 53.237 185.121 52.9879C184.87 52.7387 184.671 52.4404 184.538 52.1113C184.265 51.4116 184.265 50.6341 184.538 49.9344C184.671 49.6052 184.87 49.3068 185.121 49.0575C185.373 48.8082 185.673 48.6133 186.002 48.4845C186.345 48.3449 186.713 48.2747 187.084 48.2779C187.43 48.276 187.773 48.336 188.098 48.455C188.41 48.5711 188.692 48.7579 188.921 49.0009L188.76 49.1681C188.54 48.9498 188.276 48.782 187.986 48.6763C187.699 48.5768 187.397 48.5269 187.094 48.5288C186.759 48.5274 186.428 48.5909 186.118 48.7157C185.822 48.8372 185.554 49.0173 185.328 49.2452C185.103 49.4731 184.925 49.7442 184.805 50.0426C184.562 50.6754 184.562 51.3771 184.805 52.0099C184.926 52.3045 185.103 52.572 185.327 52.7969C185.551 53.0274 185.82 53.2083 186.117 53.328C186.426 53.4566 186.758 53.5214 187.093 53.5189C187.397 53.5224 187.699 53.4711 187.985 53.3674C188.276 53.2647 188.541 53.0965 188.759 52.8756L188.92 53.0477C188.689 53.2877 188.408 53.4737 188.097 53.5926C187.769 53.7171 187.42 53.7779 187.069 53.7717Z" fill="black"/>
<path d="M192.124 49.6836C192.416 49.6768 192.704 49.7444 192.963 49.8803C193.198 50.0102 193.388 50.2087 193.509 50.4499C193.649 50.7368 193.718 51.0538 193.709 51.3735V53.7422H193.456V51.3932C193.485 50.9949 193.357 50.6011 193.099 50.2974C192.971 50.1714 192.817 50.0734 192.65 50.0093C192.482 49.9451 192.303 49.9163 192.123 49.9246C191.829 49.9149 191.536 49.9827 191.275 50.1213C191.041 50.2546 190.852 50.4544 190.73 50.6958C190.596 50.9656 190.529 51.2639 190.535 51.5653V53.7372H190.286V47.9838H190.535V50.8433L190.501 50.7745C190.611 50.4501 190.821 50.1696 191.1 49.9738C191.404 49.7737 191.761 49.6724 192.124 49.6836Z" fill="black"/>
<path d="M195.586 48.6468C195.553 48.6476 195.52 48.641 195.489 48.6273C195.459 48.6137 195.432 48.5935 195.41 48.5681C195.388 48.5466 195.369 48.5207 195.357 48.492C195.344 48.4633 195.337 48.4323 195.337 48.4009C195.336 48.3671 195.343 48.3336 195.355 48.3023C195.368 48.271 195.386 48.2426 195.41 48.2189C195.457 48.172 195.52 48.1457 195.586 48.1457C195.652 48.1457 195.715 48.172 195.762 48.2189C195.785 48.241 195.803 48.2676 195.816 48.2973C195.829 48.3269 195.835 48.3588 195.835 48.391C195.835 48.424 195.829 48.4568 195.817 48.4873C195.804 48.5177 195.785 48.5452 195.762 48.5681C195.74 48.5935 195.713 48.6137 195.683 48.6273C195.652 48.641 195.619 48.6476 195.586 48.6468ZM195.464 53.7274V49.7032H195.713V53.7274H195.464Z" fill="black"/>
<path d="M197.521 53.7421V47.9887H197.77V53.7421H197.521Z" fill="black"/>
<path d="M201.056 53.7618C200.714 53.7679 200.376 53.6795 200.08 53.5061C199.79 53.3312 199.551 53.0821 199.387 52.784C199.217 52.4568 199.132 52.0918 199.139 51.7227C199.131 51.3549 199.216 50.9911 199.387 50.6662C199.551 50.3697 199.79 50.1223 200.08 49.9492C200.377 49.7765 200.713 49.6856 201.056 49.6856C201.398 49.6856 201.735 49.7765 202.032 49.9492C202.315 50.1223 202.546 50.3702 202.699 50.6662C202.871 50.9944 202.957 51.3615 202.948 51.7325C202.955 52.1049 202.87 52.4732 202.699 52.8037C202.549 53.1019 202.317 53.3507 202.032 53.5208C201.735 53.6912 201.397 53.7746 201.056 53.7618ZM201.056 53.5306C201.359 53.5376 201.658 53.4578 201.919 53.3005C202.172 53.146 202.379 52.925 202.518 52.6611C202.662 52.3697 202.737 52.0484 202.737 51.7227C202.737 51.3969 202.662 51.0757 202.518 50.7843C202.38 50.5217 202.172 50.3025 201.919 50.1508C201.656 49.999 201.358 49.9209 201.056 49.9246C200.757 49.9213 200.462 49.9995 200.203 50.1508C199.948 50.3022 199.738 50.5213 199.598 50.7843C199.454 51.0758 199.379 51.397 199.379 51.7227C199.379 52.0483 199.454 52.3696 199.598 52.6611C199.738 52.9255 199.948 53.1465 200.203 53.3005C200.461 53.4579 200.759 53.5378 201.061 53.5306H201.056ZM202.742 53.7421V52.3276L202.811 51.7178L202.737 51.104V47.9887H202.986V53.7421H202.742Z" fill="black"/>
<path d="M204.795 53.7421V49.718H205.039V50.8236L205.014 50.7547C205.106 50.4371 205.302 50.1599 205.569 49.9678C205.859 49.7752 206.199 49.6757 206.545 49.6826V49.9383H206.477C206.278 49.9275 206.08 49.9615 205.896 50.0379C205.712 50.1144 205.548 50.2312 205.414 50.38C205.14 50.7239 205.003 51.1583 205.029 51.5987V53.7411L204.795 53.7421Z" fill="black"/>
<path d="M209.3 53.7618C208.94 53.7698 208.583 53.6815 208.267 53.506C207.973 53.3311 207.731 53.0801 207.565 52.7791C207.39 52.4555 207.301 52.0914 207.307 51.7227C207.301 51.3578 207.383 50.997 207.546 50.6711C207.698 50.3761 207.925 50.1269 208.203 49.9491C208.489 49.7713 208.819 49.6792 209.154 49.6835C209.485 49.6806 209.81 49.769 210.095 49.9393C210.377 50.1093 210.605 50.3562 210.753 50.6515C210.918 50.973 211 51.3313 210.992 51.6932V51.762H207.478V51.5554H210.862L210.764 51.6784C210.77 51.3642 210.698 51.0535 210.554 50.7744C210.425 50.516 210.228 50.2985 209.984 50.1459C209.734 49.9976 209.45 49.9194 209.16 49.9194C208.87 49.9194 208.586 49.9976 208.336 50.1459C208.092 50.2985 207.895 50.516 207.765 50.7744C207.621 51.0565 207.549 51.3708 207.556 51.6882V51.7325C207.55 52.0584 207.629 52.3802 207.785 52.666C207.93 52.9306 208.144 53.1501 208.405 53.3005C208.679 53.4589 208.99 53.5385 209.306 53.5306C209.556 53.5315 209.803 53.4816 210.032 53.3841C210.259 53.2887 210.456 53.1342 210.603 52.9365L210.764 53.1037C210.592 53.3197 210.369 53.4888 210.115 53.5956C209.858 53.7088 209.581 53.7655 209.3 53.7618Z" fill="black"/>
<path d="M214.203 49.6836C214.495 49.6768 214.783 49.7445 215.042 49.8803C215.277 50.0102 215.467 50.2087 215.588 50.4499C215.728 50.7368 215.797 51.0538 215.788 51.3735V53.7422H215.534V51.3932C215.564 50.9949 215.436 50.6011 215.178 50.2974C215.049 50.1714 214.896 50.0734 214.729 50.0093C214.561 49.9452 214.382 49.9163 214.202 49.9246C213.907 49.9149 213.615 49.9827 213.354 50.1213C213.12 50.2546 212.931 50.4544 212.809 50.6958C212.677 50.966 212.612 51.2643 212.618 51.5653V53.7373H212.37V49.718H212.614V50.8482L212.584 50.7794C212.695 50.4552 212.905 50.1748 213.183 49.9787C213.486 49.7778 213.841 49.6749 214.203 49.6836Z" fill="black"/>
<path d="M99.2746 24.2157L99.2259 10.7277L92.66 21.8372H90.3539L83.8212 11.0268V24.2304H78.9807V1.73513H83.2503L91.5972 15.7247L99.8212 1.75677H104.058L104.121 24.2373L99.2746 24.2157Z" fill="#3773A9"/>
<path d="M126.677 20.041V24.2176H109.41V1.73513H126.263V5.897H114.563V10.8153H124.918V14.8591H114.54V20.0627L126.677 20.041Z" fill="#3773A9"/>
<path d="M151.248 1.73513V24.2157H147.001L135.887 10.5654V24.2157H130.792V1.73513H135.057L146.148 15.3805V1.73513H151.248Z" fill="#3773A9"/>
<path d="M161.139 5.9747H154.015V1.73513H173.452V5.9747H166.316V24.2196H161.143L161.139 5.9747Z" fill="#3773A9"/>
<path d="M189.799 19.3957H179.444L177.47 24.2157H172.181L182.102 1.73513H187.221L197.214 24.2157H191.779L189.799 19.3957ZM188.176 15.4611L184.641 6.86L181.128 15.4542L188.176 15.4611Z" fill="#3773A9"/>
<path d="M199.52 1.73513H204.677V19.9751H215.866V24.2157H199.52V1.73513Z" fill="#3773A9"/>
<path d="M84.0505 44.0424C83.0506 44.0483 82.0581 43.8686 81.1228 43.5122C80.3106 43.2324 79.5769 42.7601 78.9836 42.1351L79.4413 41.3737C79.9992 41.9226 80.6637 42.3493 81.3931 42.6269C82.2306 42.9646 83.1261 43.1317 84.028 43.1187C84.8034 43.1447 85.5764 43.0198 86.3048 42.7508C86.8252 42.5545 87.2797 42.2134 87.6155 41.7672C87.8999 41.3623 88.0501 40.8772 88.0449 40.3812C88.0676 39.8564 87.8934 39.3422 87.5569 38.9411C87.2114 38.5593 86.7829 38.2633 86.3048 38.0765C85.7552 37.8534 85.1895 37.6729 84.6126 37.5364C84.0036 37.3889 83.3888 37.2315 82.7652 37.0446C82.1738 36.8902 81.6003 36.6729 81.0544 36.3964C80.5553 36.1421 80.1278 35.7652 79.8111 35.3006C79.4793 34.7639 79.3176 34.1381 79.3476 33.5064C79.3434 32.8553 79.5227 32.2164 79.8648 31.664C80.2552 31.0596 80.815 30.5858 81.4731 30.3026C82.3581 29.9238 83.3151 29.7461 84.2759 29.7823C85.0472 29.7822 85.8143 29.8962 86.5527 30.1206C87.2403 30.3175 87.89 30.6301 88.4743 31.0453L88.0937 31.8657C87.5196 31.4683 86.886 31.1664 86.217 30.9715C85.583 30.7836 84.926 30.686 84.2652 30.6813C83.5108 30.6569 82.7594 30.7874 82.0567 31.065C81.5365 31.2667 81.087 31.6189 80.7646 32.0771C80.4866 32.4932 80.3419 32.9852 80.3498 33.4867C80.3213 34.0096 80.4865 34.5246 80.8134 34.9317C81.155 35.3129 81.581 35.6074 82.0567 35.7914C82.6113 36.02 83.1834 36.2025 83.7675 36.3374C84.3911 36.4839 85.0059 36.6325 85.6217 36.8036C86.2058 36.9604 86.7722 37.1777 87.312 37.4519C87.8111 37.7034 88.2412 38.075 88.564 38.5339C88.9085 39.0546 89.0795 39.6724 89.052 40.2976C89.0529 40.9479 88.8664 41.5846 88.5152 42.1301C88.1121 42.7376 87.541 43.2126 86.8728 43.4964C85.9813 43.8787 85.0191 44.0648 84.0505 44.0424Z" fill="#161D23"/>
<path d="M105.074 44.0423C104.327 44.083 103.58 43.9688 102.879 43.7069C102.178 43.445 101.538 43.0409 100.998 42.5196C100.003 41.5006 99.506 39.9903 99.506 37.9889V29.9111H100.52V37.9437C100.52 39.6926 100.918 40.9881 101.714 41.8301C102.652 42.6449 103.848 43.0931 105.086 43.0931C106.323 43.0931 107.52 42.6449 108.457 41.8301C109.249 40.992 109.646 39.6965 109.646 37.9437V29.9052H110.66V37.983C110.66 39.9877 110.164 41.4979 109.173 42.5137C108.182 43.5318 106.812 44.0423 105.074 44.0423Z" fill="#161D23"/>
<path d="M120.852 43.9341V29.9061H125.844C126.872 29.8796 127.895 30.0703 128.847 30.4658C129.642 30.7978 130.321 31.3608 130.798 32.083C131.242 32.8548 131.476 33.7311 131.476 34.6233C131.476 35.5154 131.242 36.3918 130.798 37.1636C130.323 37.8883 129.643 38.4529 128.847 38.7847C127.896 39.181 126.873 39.372 125.844 39.3453H121.412L121.866 38.8535V43.9243L120.852 43.9341ZM121.866 38.9273L121.412 38.4354H125.844C127.341 38.4354 128.479 38.101 129.259 37.4518C129.997 36.721 130.417 35.7251 130.426 34.6828C130.436 33.6404 130.035 32.6367 129.311 31.8921C129.295 31.8744 129.277 31.8567 129.259 31.84C128.485 31.176 127.344 30.8564 125.844 30.8564H121.412L121.866 30.3645V38.9273Z" fill="#161D23"/>
<path d="M141.922 43.9341V29.9061H146.909C147.942 29.8767 148.971 30.0674 149.926 30.4658C150.723 30.7948 151.404 31.3584 151.878 32.083C152.322 32.8548 152.556 33.7311 152.556 34.6233C152.556 35.5154 152.322 36.3917 151.878 37.1636C151.405 37.8907 150.725 38.456 149.926 38.7846C148.975 39.181 147.952 39.372 146.923 39.3453H142.492L142.95 38.8535V43.9243L141.922 43.9341ZM142.939 38.9273L142.48 38.4354H146.912C148.414 38.4354 149.547 38.101 150.327 37.4518C151.065 36.721 151.485 35.7251 151.494 34.6827C151.504 33.6404 151.103 32.6367 150.379 31.8921L150.327 31.84C149.554 31.1842 148.415 30.8563 146.912 30.8563H142.48L142.939 30.3645V38.9273Z" fill="#161D23"/>
<path d="M168.286 44.0423C167.303 44.0521 166.326 43.8722 165.41 43.5122C164.554 43.175 163.773 42.6675 163.116 42.0199C162.458 41.3723 161.937 40.5979 161.582 39.7428C160.867 37.9352 160.867 35.9199 161.582 34.1123C161.93 33.2645 162.442 32.4953 163.089 31.8499C163.751 31.1989 164.535 30.6876 165.395 30.3459C167.247 29.6387 169.291 29.6387 171.142 30.3459C171.997 30.6805 172.775 31.1849 173.432 31.8291C174.089 32.4733 174.61 33.2441 174.965 34.0956C175.693 35.9142 175.693 37.9467 174.965 39.7654C174.61 40.6169 174.089 41.3877 173.432 42.0318C172.775 42.676 171.997 43.1805 171.142 43.5151C170.232 43.8721 169.263 44.0511 168.286 44.0423ZM168.286 43.099C169.13 43.1085 169.968 42.9518 170.752 42.6377C171.483 42.3402 172.147 41.8973 172.704 41.3353C173.262 40.7722 173.704 40.1037 174.005 39.368C174.634 37.79 174.634 36.0277 174.005 34.4497C173.701 33.7155 173.259 33.0475 172.704 32.4824C172.145 31.9223 171.482 31.4797 170.752 31.18C169.164 30.5642 167.407 30.5642 165.819 31.18C165.083 31.4751 164.413 31.9152 163.848 32.4747C163.283 33.0341 162.834 33.7015 162.528 34.4379C161.9 36.0161 161.9 37.778 162.528 39.3562C162.832 40.0952 163.279 40.7653 163.845 41.3266C164.41 41.8879 165.081 42.3291 165.819 42.6239C166.603 42.9408 167.441 43.1008 168.286 43.0951V43.099Z" fill="#161D23"/>
<path d="M183.944 43.9341V29.9061H188.921C189.952 29.8785 190.977 30.0698 191.929 30.4678C192.726 30.7973 193.406 31.3608 193.881 32.0849C194.35 32.8524 194.585 33.7415 194.558 34.6424C194.58 35.5291 194.345 36.4028 193.881 37.1567C193.404 37.8797 192.725 38.4438 191.929 38.7777C190.98 39.1827 189.956 39.3773 188.926 39.3483H184.495L184.949 38.8564V43.9272L183.944 43.9341ZM184.953 38.9273L184.5 38.4354H188.926C190.428 38.4354 191.566 38.1075 192.342 37.4518C193.081 36.7223 193.502 35.7271 193.514 34.6848C193.525 33.6424 193.126 32.638 192.404 31.8921C192.384 31.8715 192.363 31.8508 192.342 31.8302C191.568 31.1744 190.43 30.8465 188.926 30.8465H184.495L184.949 30.3547L184.953 38.9273ZM193.607 43.9341L189.989 38.8436H191.14L194.777 43.9341H193.607Z" fill="#161D23"/>
<path d="M209.886 43.9341V30.8298H204.826V29.9062H216V30.8298H210.925V43.9341H209.886Z" fill="#161D23"/>
</svg>
